<?xml version="1.0" encoding="UTF-8"?>
<!DOCTYPE svg PUBLIC "-//W3C//DTD SVG 1.1//EN" "http://www.w3.org/Graphics/SVG/1.1/DTD/svg11.dtd">
<svg xmlns="http://www.w3.org/2000/svg" version="1.1" width="50px" height="50px" style="shape-rendering:geometricPrecision; text-rendering:geometricPrecision; image-rendering:optimizeQuality; fill-rule:evenodd; clip-rule:evenodd" xmlns:xlink="http://www.w3.org/1999/xlink">
<g><path style="opacity:0.997" fill="#5ec9d4" d="M 28.5,8.5 C 28.7373,9.79105 28.404,10.791 27.5,11.5C 16.7916,10.1828 11.1249,15.1828 10.5,26.5C 10.1667,27.1667 9.83333,27.8333 9.5,28.5C 9.16667,28.5 8.83333,28.5 8.5,28.5C 1.65149,24.4849 -0.848506,18.4849 1,10.5C 3.09343,3.35868 7.92676,0.0253507 15.5,0.5C 21.7123,0.425566 26.0456,3.09223 28.5,8.5 Z"/></g>
<g><path style="opacity:1" fill="#311aca" d="M 38.5,45.5 C 38.0825,46.2216 37.4158,46.7216 36.5,47C 27.3425,49.0286 19.1758,47.1953 12,41.5C 9.64625,37.4671 8.47958,33.1338 8.5,28.5C 8.83333,28.5 9.16667,28.5 9.5,28.5C 11.5,28.5 13.5,28.5 15.5,28.5C 16.1667,28.5 16.5,28.8333 16.5,29.5C 16.8333,31.5 17.1667,33.5 17.5,35.5C 19.6764,39.9283 23.343,41.5949 28.5,40.5C 34.2444,41.6286 38.2444,39.6286 40.5,34.5C 41.1174,34.3893 41.6174,34.056 42,33.5C 43.068,28.2317 42.4013,23.2317 40,18.5C 37.0164,15.8999 33.5164,14.8999 29.5,15.5C 29.5,13.8333 29.5,12.1667 29.5,10.5C 38.2425,9.77865 44.0759,13.4453 47,21.5C 49.551,31.6964 46.7177,39.6964 38.5,45.5 Z"/></g>
<g><path style="opacity:0.153" fill="#3828b5" d="M 28.5,8.5 C 37.9426,7.80123 44.4426,11.8012 48,20.5C 48.8608,26.5851 48.5275,32.5851 47,38.5C 45.1952,42.1429 42.3619,44.4763 38.5,45.5C 46.7177,39.6964 49.551,31.6964 47,21.5C 44.0759,13.4453 38.2425,9.77865 29.5,10.5C 29.5,12.1667 29.5,13.8333 29.5,15.5C 28.8333,15.5 28.5,15.1667 28.5,14.5C 27.8902,13.609 27.5569,12.609 27.5,11.5C 28.404,10.791 28.7373,9.79105 28.5,8.5 Z"/></g>
<g><path style="opacity:0.867" fill="#3827b8" d="M 29.5,16.5 C 29.5,16.1667 29.5,15.8333 29.5,15.5C 33.5164,14.8999 37.0164,15.8999 40,18.5C 42.4013,23.2317 43.068,28.2317 42,33.5C 41.6174,34.056 41.1174,34.3893 40.5,34.5C 40.8885,29.3722 40.3885,24.3722 39,19.5C 36.2816,17.2055 33.115,16.2055 29.5,16.5 Z"/></g>
<g><path style="opacity:1" fill="#41cdd6" d="M 28.5,14.5 C 28.5,15.1667 28.8333,15.5 29.5,15.5C 29.5,15.8333 29.5,16.1667 29.5,16.5C 29.3593,24.6426 25.0259,28.976 16.5,29.5C 16.5,28.8333 16.1667,28.5 15.5,28.5C 15.6716,27.5084 15.3382,26.8417 14.5,26.5C 15.1085,17.8976 19.7751,13.8976 28.5,14.5 Z"/></g>
<g><path style="opacity:0.216" fill="#475ac1" d="M 10.5,26.5 C 11.9613,27.6857 13.2946,27.6857 14.5,26.5C 15.3382,26.8417 15.6716,27.5084 15.5,28.5C 13.5,28.5 11.5,28.5 9.5,28.5C 9.83333,27.8333 10.1667,27.1667 10.5,26.5 Z"/></g>
<g><path style="opacity:0.129" fill="#3a2cb2" d="M 40.5,34.5 C 38.2444,39.6286 34.2444,41.6286 28.5,40.5C 23.343,41.5949 19.6764,39.9283 17.5,35.5C 25.4329,41.0887 33.0995,40.7553 40.5,34.5 Z"/></g>
</svg>
